<?xml version="1.0" encoding="UTF-8"?>
<svg width="141px" height="143px" viewBox="0 0 141 143" version="1.1" xmlns="http://www.w3.org/2000/svg" xmlns:xlink="http://www.w3.org/1999/xlink">
    <!-- Generator: Sketch 53.2 (72643) - https://sketchapp.com -->
    <title>Artboard</title>
    <desc>Created with Sketch.</desc>
    <defs>
        <path d="M115.861348,62.9824024 C111.987054,77.8724493 108.714204,95.5060566 94.7489197,104.816492 C83.9166549,112.038192 67.6183392,106.954767 60.3171637,119.234166 C59.7513785,120.185726 59.9328929,122.039931 60.9396145,122.497825 C78.4052703,130.441853 117.085084,105.235695 119.406496,85.4336556 C119.617296,83.6354944 126.450492,60.9547578 117.041743,60 L115.861348,62.9824024 Z" id="path-1"></path>
        <filter x="-21.8%" y="-19.5%" width="140.3%" height="139.1%" filterUnits="objectBoundingBox" id="filter-2">
            <feOffset dx="-1" dy="0" in="SourceAlpha" result="shadowOffsetOuter1"></feOffset>
            <feGaussianBlur stdDeviation="4" in="shadowOffsetOuter1" result="shadowBlurOuter1"></feGaussianBlur>
            <feColorMatrix values="0 0 0 0 1   0 0 0 0 1   0 0 0 0 1  0 0 0 0.9 0" type="matrix" in="shadowBlurOuter1"></feColorMatrix>
        </filter>
    </defs>
    <g id="Artboard" stroke="none" stroke-width="1" fill="none" fill-rule="evenodd">
        <path d="M12.9315002,97.8517734 C-7.92754332,64.1304895 19.5462484,1.97419125 78.4817578,8.4720987 C90.6539338,9.81413636 105.631071,13.8419473 115.021781,22.2064181 C143.370185,47.4568416 136.41425,102.453498 106.605732,124.215973 C78.4998127,144.735423 33.7905437,131.573057 12.9315002,97.8517734 Z" id="Path-2" stroke="#FFFFFF"></path>
        <path d="M29.5121944,34.0274871 C33.5751458,30.8309986 36.358723,22.465436 46.7143346,18.6846818 C49.8005951,17.5579118 56.7957802,17.8939817 59.1960236,19.165994 C61.596267,20.4380062 62.5437506,21.8147941 61.6939051,24.2078299 C60.8440596,26.6008657 59.9270519,26.1942855 53.1655892,28.3210548 C46.4041265,30.4478241 40.970139,33.4062791 37.6005976,35.6948652 C34.2310562,37.9834514 30.1514659,50.0074502 26.7082564,47.7096218 C23.265047,45.4117935 25.4492429,37.2239756 29.5121944,34.0274871 Z" id="Path-3" fill="#FFFFFF"></path>
        <path d="M14,61.737116 C14,59.4061299 15.5941948,56.4117114 16.165294,53.0765075 C17.1510811,47.3195381 23.28037,47.8109153 24.7434308,53.5988047 C26.4512528,60.3549731 19.1666651,67.758997 16.6656479,66.9372829 C14.1646307,66.1155688 14,64.0681022 14,61.737116 Z" id="Path-4" fill="#FFFFFF"></path>
        <g id="Path-5" fill="black" fill-opacity="1">
            <use filter="url(#filter-2)" xlink:href="#path-1"></use>
        </g>
    </g>
</svg>